<svg width="43" height="44" viewBox="0 0 43 44" fill="none" xmlns="http://www.w3.org/2000/svg">
<path d="M36.0244 37.6572H29.6533C24.5963 37.6572 20.4881 33.5513 20.4881 28.4919V28.2879C20.4881 24.8842 23.2514 22.1209 26.6552 22.1209C31.8261 22.1209 36.0244 26.3192 36.0244 31.4901V37.6572Z" fill="#31C58D"/>
<path d="M36.0215 6.58691V12.958C36.0215 18.015 31.9156 22.1232 26.8563 22.1232H26.6523C23.2485 22.1232 20.4852 19.3599 20.4852 15.9561C20.4852 10.7853 24.6835 6.58691 29.8544 6.58691H36.0215Z" fill="#31C58D"/>
<path d="M13.3582 22.1209C8.71864 22.1209 4.95198 18.3542 4.95198 13.7147V6.58455H13.0854C17.1699 6.58455 20.4883 9.90055 20.4883 13.9874V14.9931C20.4883 18.9282 17.2933 22.1232 13.3582 22.1232V22.1209Z" fill="#31C58D"/>
<path d="M20.4859 29.2533C20.4859 33.8929 16.7192 37.6595 12.0797 37.6595H4.9496L4.9496 29.5261C4.9496 25.4416 8.2656 22.1232 12.3525 22.1232H13.3582C17.2933 22.1232 20.4883 25.3183 20.4883 29.2533H20.4859Z" fill="black"/>
</svg>
